<svg width="27" height="27" viewBox="0 0 27 27" fill="none" xmlns="http://www.w3.org/2000/svg">
<g opacity="0.3">
<g filter="url(#filter0_d)">
<path fill-rule="evenodd" clip-rule="evenodd" d="M18.458 13.044L22 16.586L20.586 18L17.044 14.458C15.782 15.421 14.21 16 12.5 16C8.35786 16 5 12.6421 5 8.5C5 4.35786 8.35786 1 12.5 1C16.6421 1 20 4.35786 20 8.5C20.0001 10.1431 19.4581 11.7403 18.458 13.044ZM12.5 3C9.467 3 7 5.467 7 8.5C7.00331 11.5362 9.4638 13.9967 12.5 14C15.532 14 18 11.532 18 8.5C18 5.467 15.532 3 12.5 3Z" fill="white"/>
<path d="M22 16.586L22.3536 16.9396L22.7071 16.586L22.3536 16.2324L22 16.586ZM18.458 13.044L18.0613 12.7397L17.7944 13.0875L18.1044 13.3976L18.458 13.044ZM20.586 18L20.2324 18.3536L20.586 18.7071L20.9396 18.3536L20.586 18ZM17.044 14.458L17.3976 14.1044L17.0883 13.7952L16.7407 14.0605L17.044 14.458ZM20 8.5H19.5V8.50003L20 8.5ZM7 8.5H6.5L6.5 8.50054L7 8.5ZM12.5 14L12.4995 14.5H12.5V14ZM22.3536 16.2324L18.8116 12.6904L18.1044 13.3976L21.6464 16.9396L22.3536 16.2324ZM20.9396 18.3536L22.3536 16.9396L21.6464 16.2324L20.2324 17.6464L20.9396 18.3536ZM16.6904 14.8116L20.2324 18.3536L20.9396 17.6464L17.3976 14.1044L16.6904 14.8116ZM12.5 16.5C14.3251 16.5 16.0027 15.8816 17.3473 14.8555L16.7407 14.0605C15.5613 14.9604 14.0949 15.5 12.5 15.5V16.5ZM4.5 8.5C4.5 12.9183 8.08172 16.5 12.5 16.5V15.5C8.63401 15.5 5.5 12.366 5.5 8.5H4.5ZM12.5 0.5C8.08172 0.5 4.5 4.08172 4.5 8.5H5.5C5.5 4.63401 8.63401 1.5 12.5 1.5V0.5ZM20.5 8.5C20.5 4.08172 16.9183 0.5 12.5 0.5V1.5C16.366 1.5 19.5 4.63401 19.5 8.5H20.5ZM18.8547 13.3483C19.9218 11.9573 20.5001 10.2531 20.5 8.49997L19.5 8.50003C19.5001 10.0331 18.9944 11.5233 18.0613 12.7397L18.8547 13.3483ZM7.5 8.5C7.5 5.74314 9.74314 3.5 12.5 3.5V2.5C9.19086 2.5 6.5 5.19086 6.5 8.5H7.5ZM12.5005 13.5C9.74007 13.497 7.50301 11.2599 7.5 8.49946L6.5 8.50054C6.50361 11.8125 9.18754 14.4964 12.4995 14.5L12.5005 13.5ZM17.5 8.5C17.5 11.2559 15.2559 13.5 12.5 13.5V14.5C15.8081 14.5 18.5 11.8081 18.5 8.5H17.5ZM12.5 3.5C15.2559 3.5 17.5 5.7432 17.5 8.5H18.5C18.5 5.1908 15.8081 2.5 12.5 2.5V3.5Z" fill="black"/>
</g>
</g>
<defs>
<filter id="filter0_d" x="0.5" y="0.5" width="26.2071" height="26.2071" filterUnits="userSpaceOnUse" color-interpolation-filters="sRGB">
<feFlood flood-opacity="0" result="BackgroundImageFix"/>
<feColorMatrix in="SourceAlpha" type="matrix" values="0 0 0 0 0 0 0 0 0 0 0 0 0 0 0 0 0 0 127 0"/>
<feOffset dy="4"/>
<feGaussianBlur stdDeviation="2"/>
<feColorMatrix type="matrix" values="0 0 0 0 0 0 0 0 0 0 0 0 0 0 0 0 0 0 0.25 0"/>
<feBlend mode="normal" in2="BackgroundImageFix" result="effect1_dropShadow"/>
<feBlend mode="normal" in="SourceGraphic" in2="effect1_dropShadow" result="shape"/>
</filter>
</defs>
</svg>
